<svg width="471" height="103" viewBox="0 0 471 103" fill="none" xmlns="http://www.w3.org/2000/svg">
<path d="M97.3215 29.296C106.538 29.296 113.663 32.0693 118.698 37.616C123.818 43.1627 126.378 50.672 126.378 60.144V102H98.0895V63.728C98.0895 60.656 97.1508 58.2667 95.2735 56.56C93.4815 54.768 91.0495 53.872 87.9775 53.872C84.8202 53.872 82.3455 54.768 80.5535 56.56C78.7615 58.2667 77.8655 60.656 77.8655 63.728V102H49.5775V63.728C49.5775 60.656 48.6388 58.2667 46.7615 56.56C44.9695 54.768 42.5375 53.872 39.4655 53.872C36.3082 53.872 33.8335 54.768 32.0415 56.56C30.2495 58.2667 29.3535 60.656 29.3535 63.728V102H0.937506V29.808H29.3535V39.536C31.4015 36.464 34.1748 33.9893 37.6735 32.112C41.2575 30.2347 45.4388 29.296 50.2175 29.296C55.4228 29.296 60.0308 30.448 64.0415 32.752C68.0522 34.9707 71.2522 38.128 73.6415 42.224C76.2868 38.4693 79.6575 35.3973 83.7535 33.008C87.8495 30.5333 92.3722 29.296 97.3215 29.296ZM217.664 29.808V102H189.248V90.992C187.029 94.4053 184.042 97.1787 180.288 99.312C176.618 101.445 172.224 102.512 167.104 102.512C158.826 102.512 152.341 99.7387 147.648 94.192C143.04 88.6453 140.736 81.136 140.736 71.664V29.808H169.024V68.08C169.024 71.4933 169.92 74.224 171.712 76.272C173.589 78.2347 176.064 79.216 179.136 79.216C182.293 79.216 184.768 78.2347 186.56 76.272C188.352 74.224 189.248 71.4933 189.248 68.08V29.808H217.664ZM274.658 24.688C273.122 24.5173 272.055 24.432 271.458 24.432C269.324 24.432 267.703 24.8587 266.594 25.712C265.484 26.48 264.716 27.8453 264.29 29.808H274.658V53.488H264.034V102H235.618V53.488H227.938V29.808H235.618C235.788 20.4213 238.732 13.168 244.45 8.048C250.252 2.84266 258.359 0.239998 268.77 0.239998C269.964 0.239998 271.927 0.32533 274.658 0.495995V24.688ZM326.468 24.688C324.932 24.5173 323.865 24.432 323.268 24.432C321.134 24.432 319.513 24.8587 318.403 25.712C317.294 26.48 316.526 27.8453 316.099 29.808H326.468V53.488H315.844V102H287.427V53.488H279.747V29.808H287.427C287.598 20.4213 290.542 13.168 296.26 8.048C302.062 2.84266 310.169 0.239998 320.58 0.239998C321.774 0.239998 323.737 0.32533 326.468 0.495995V24.688ZM406.565 65.264C406.565 67.2267 406.438 69.104 406.182 70.896H360.485C360.912 77.1253 363.515 80.24 368.293 80.24C371.365 80.24 373.584 78.832 374.949 76.016H405.03C404.006 81.136 401.83 85.744 398.502 89.84C395.259 93.8507 391.12 97.0507 386.085 99.44C381.136 101.744 375.675 102.896 369.701 102.896C362.533 102.896 356.133 101.403 350.501 98.416C344.955 95.4293 340.603 91.1627 337.445 85.616C334.373 79.984 332.837 73.4133 332.837 65.904C332.837 58.3947 334.373 51.8667 337.445 46.32C340.603 40.688 344.955 36.3787 350.501 33.392C356.133 30.4053 362.533 28.912 369.701 28.912C376.869 28.912 383.227 30.4053 388.773 33.392C394.405 36.2933 398.757 40.4747 401.829 45.936C404.987 51.3973 406.565 57.84 406.565 65.264ZM377.765 58.48C377.765 56.0907 376.997 54.2987 375.461 53.104C373.925 51.824 372.005 51.184 369.701 51.184C364.667 51.184 361.723 53.616 360.869 58.48H377.765ZM446.528 43.12C449.43 38.9387 452.971 35.6107 457.152 33.136C461.334 30.576 465.686 29.296 470.208 29.296V59.632H462.144C456.768 59.632 452.8 60.5707 450.24 62.448C447.766 64.3253 446.528 67.6533 446.528 72.432V102H418.112V29.808H446.528V43.12Z" fill="#F70606"/>
</svg>
